# Blender 3.1.0
# www.blender.org
mtllib bymaga2.mtl
o Icosphere
v -0.001042 -0.467548 -0.000155
v 0.325809 -0.194717 0.228308
v -0.139517 -0.165108 0.326550
v -0.300613 -0.116737 -0.027277
v -0.108687 -0.200723 -0.317974
v 0.338170 -0.209352 -0.245690
v 0.108991 0.151904 0.326746
v -0.292451 0.182865 0.215264
v -0.333035 0.206538 -0.231143
v 0.068711 0.184103 -0.200585
v 0.294447 0.155861 0.009173
v 0.000771 0.406325 0.002380
v -0.107828 -0.299779 0.324537
v -0.076141 -0.398692 0.234342
v -0.037188 -0.452956 0.111805
v 0.028844 -0.363112 0.051160
v 0.139912 -0.280951 0.090061
v 0.227243 -0.223395 0.138666
v 0.209289 -0.138900 0.233969
v 0.075579 -0.109462 0.250157
v -0.050342 -0.151344 0.304563
v 0.348785 -0.222871 -0.130071
v 0.288791 -0.203603 -0.009500
v 0.361229 -0.220734 0.128234
v 0.089840 -0.438850 -0.067696
v 0.195519 -0.391250 -0.143310
v 0.285687 -0.308171 -0.207562
v -0.230312 -0.183105 -0.031960
v -0.213229 -0.353631 -0.009358
v -0.117710 -0.453666 0.000000
v -0.226965 -0.235217 0.335405
v -0.239902 -0.173036 0.186623
v -0.208941 -0.084591 0.042084
v -0.103821 -0.304782 -0.318669
v -0.076141 -0.398692 -0.234342
v -0.036373 -0.453667 -0.111947
v -0.387766 -0.232691 -0.112684
v -0.310721 -0.237006 -0.220819
v -0.213059 -0.229923 -0.299066
v -0.009635 -0.217949 -0.317570
v 0.114551 -0.228106 -0.310592
v 0.247733 -0.233615 -0.314537
v 0.276025 0.086659 0.051499
v 0.311630 0.002577 0.107134
v 0.358741 -0.106754 0.189907
v 0.313622 -0.108424 -0.160831
v 0.291287 -0.013782 -0.059183
v 0.250187 0.074501 -0.017024
v 0.057790 0.084929 0.379427
v -0.006620 0.009579 0.431174
v -0.072681 -0.068466 0.383524
v 0.248796 -0.060362 0.233318
v 0.227722 0.011773 0.305851
v 0.178087 0.096784 0.340048
v -0.325814 0.109979 0.173620
v -0.331402 0.023323 0.106375
v -0.277462 -0.031990 0.016946
v -0.204100 -0.110489 0.390020
v -0.273348 -0.000338 0.377010
v -0.265641 0.100855 0.271973
v -0.292770 0.110790 -0.225976
v -0.229547 -0.011549 -0.209153
v -0.167780 -0.114445 -0.284707
v -0.373126 -0.087947 -0.065974
v -0.445657 0.000006 -0.144678
v -0.397142 0.116607 -0.198189
v 0.113480 0.090663 -0.171892
v 0.186593 -0.037381 -0.178049
v 0.287583 -0.115203 -0.255402
v -0.053743 -0.111001 -0.300242
v 0.004236 -0.012700 -0.240559
v 0.054483 0.097627 -0.241047
v 0.297201 0.210972 0.110017
v 0.308519 0.216174 0.226160
v 0.203335 0.186400 0.285920
v -0.004525 0.138554 0.297778
v -0.109426 0.200429 0.316116
v -0.221997 0.205768 0.283407
v -0.355491 0.224515 0.130894
v -0.276502 0.184236 -0.026591
v -0.364883 0.226336 -0.135116
v -0.230730 0.219723 -0.256623
v -0.100875 0.215510 -0.264070
v 0.016283 0.203651 -0.267896
v 0.155303 0.189803 -0.166321
v 0.226759 0.194318 -0.090815
v 0.287497 0.182713 -0.051288
v 0.029622 0.394988 0.088077
v 0.058178 0.311111 0.176013
v 0.052723 0.151174 0.213984
v 0.291488 0.259841 0.005111
v 0.169736 0.295862 -0.018790
v 0.117077 0.449966 0.001214
v -0.084860 0.386381 0.055434
v -0.178961 0.345647 0.123626
v -0.245996 0.260193 0.177771
v -0.086003 0.390929 -0.056467
v -0.197993 0.392764 -0.142541
v -0.285012 0.307143 -0.205008
v 0.031800 0.387553 -0.080605
v 0.065981 0.331180 -0.173684
v 0.099027 0.272862 -0.259365
v 0.147091 0.362430 -0.089467
v 0.238693 0.290597 -0.067924
v 0.177511 0.298508 -0.168777
v -0.062276 0.378009 -0.173014
v -0.020543 0.307674 -0.263749
v -0.164540 0.329268 -0.250068
v -0.187364 0.332482 -0.008018
v -0.313552 0.338514 -0.076348
v -0.245774 0.261687 0.046601
v -0.064948 0.353377 0.169356
v -0.169568 0.339142 0.275480
v -0.033278 0.274828 0.260268
v 0.121855 0.324496 0.067305
v 0.162310 0.167881 0.125615
v 0.227583 0.243673 0.072585
v 0.248936 0.076162 -0.065246
v 0.270927 -0.017038 -0.138306
v 0.218941 0.090200 -0.142587
v -0.037981 0.106272 -0.236387
v -0.103162 -0.012679 -0.229787
v -0.166337 0.108453 -0.223800
v -0.419943 0.119540 -0.080794
v -0.374816 0.016041 -0.017894
v -0.328939 0.115352 0.042447
v -0.179473 0.101189 0.348037
v -0.145537 0.007494 0.436171
v -0.060396 0.095216 0.385140
v 0.281640 0.116528 0.280218
v 0.359829 0.003501 0.264621
v 0.304687 0.115275 0.191355
v 0.106376 -0.018932 -0.232425
v 0.174018 -0.123323 -0.269845
v 0.060968 -0.115663 -0.300295
v -0.359083 -0.000491 -0.230744
v -0.294203 -0.125911 -0.274939
v -0.401651 -0.129101 -0.195281
v -0.300310 0.005275 0.233660
v -0.287147 -0.074494 0.145577
v -0.314405 -0.129544 0.322547
v 0.122188 -0.008727 0.367701
v 0.057977 -0.081096 0.385587
v 0.188723 -0.098671 0.359657
v 0.284430 0.001858 0.008597
v 0.308387 -0.092972 0.058212
v 0.294487 -0.096661 -0.043858
v 0.169573 -0.339148 -0.275485
v 0.064771 -0.419208 -0.199343
v 0.025269 -0.338665 -0.320469
v -0.208639 -0.338575 -0.244114
v -0.169572 -0.419208 -0.123201
v -0.297915 -0.337792 -0.123285
v -0.165984 -0.191506 0.062269
v -0.159515 -0.402438 0.117401
v -0.198443 -0.324327 0.238137
v 0.301783 -0.324351 -0.075784
v 0.225322 -0.198917 0.028584
v 0.111009 -0.255095 -0.049536
v -0.004945 -0.261456 0.228883
v 0.062270 -0.411468 0.193813
v 0.126883 -0.244596 0.183872
vn 0.1571 -0.4316 0.0935
vn 0.3762 -0.2778 0.0314
vn 0.0700 -0.4551 0.0875
vn 0.1750 -0.2410 0.3619
vn 0.1054 -0.4423 0.1137
vn 0.3555 -0.3026 -0.0413
vn -0.1942 -0.4260 0.0212
vn -0.0211 -0.4549 -0.1109
vn 0.2679 -0.3597 0.1359
vn 0.4460 0.0137 0.1434
vn 0.1274 -0.1518 0.4247
vn 0.1758 -0.2353 0.3653
vn 0.0369 -0.2688 0.3822
vn -0.2158 -0.1576 0.3850
vn -0.3686 -0.2791 0.0768
vn -0.3110 -0.2963 0.1875
vn -0.0476 0.0588 -0.4625
vn -0.1790 -0.0703 -0.4274
vn -0.0653 0.1801 -0.4278
vn 0.4117 -0.0344 -0.2213
vn 0.1570 -0.0570 -0.4379
vn 0.2333 0.2583 -0.3139
vn 0.2326 -0.1715 0.3690
vn -0.0586 -0.1768 0.4301
vn -0.3484 -0.1235 0.2882
vn -0.0229 0.1753 -0.4340
vn 0.4334 0.1718 -0.0479
vn -0.0250 0.3782 0.2756
vn 0.0252 0.3948 0.2513
vn 0.1651 0.3641 0.2446
vn -0.3411 0.1511 0.2837
vn -0.2757 0.1612 0.3431
vn -0.3201 0.3187 0.1250
vn -0.2632 0.1103 -0.3718
vn -0.4134 0.2182 0.0333
vn -0.2623 0.2700 -0.2792
vn 0.2834 -0.1118 -0.3561
vn 0.1071 -0.0814 -0.4490
vn 0.2241 0.0926 -0.4011
vn 0.4558 -0.0949 -0.0539
vn 0.3998 -0.0167 -0.2441
vn 0.3604 0.2991 0.0179
vn 0.1966 0.4236 0.0393
vn 0.0197 0.4312 -0.1825
vn -0.0988 0.4580 -0.0106
vn 0.2910 0.3371 0.1462
vn 0.2557 0.3650 -0.1451
vn 0.3430 0.3028 -0.1018
vn 0.1212 0.3942 -0.2228
vn 0.3148 0.1955 -0.2869
vn 0.3336 0.0272 -0.3280
vn 0.2689 -0.0634 -0.3786
vn -0.0782 0.4620 0.0114
vn 0.0575 0.4296 -0.1784
vn 0.0505 0.2355 -0.4021
vn -0.1166 0.4495 -0.0633
vn -0.0725 0.2539 -0.3873
vn -0.0314 -0.0530 -0.4646
vn -0.0816 0.0052 -0.4615
vn -0.1289 0.4461 0.0636
vn -0.2054 0.4012 0.1286
vn -0.3383 0.2980 0.1280
vn -0.2477 0.3967 0.0299
vn -0.3446 0.3151 0.0407
vn -0.4028 0.2063 0.1217
vn -0.4083 0.2242 0.0517
vn 0.0683 0.4036 0.2283
vn 0.0381 0.4249 0.1940
vn -0.1348 0.3430 0.2896
vn 0.2570 0.2433 0.3073
vn 0.2118 0.2269 0.3512
vn 0.0295 0.1935 0.4258
vn 0.1343 0.3458 0.2864
vn 0.3224 0.2367 0.2444
vn 0.0382 0.3887 0.2590
vn 0.0777 0.4009 0.2301
vn 0.2934 0.3271 0.1630
vn 0.4157 0.2164 -0.0075
vn 0.4612 0.0115 -0.0824
vn 0.4496 0.1307 -0.0199
vn 0.4482 0.0758 -0.1142
vn 0.3312 0.2308 -0.2380
vn 0.3071 0.0972 -0.3404
vn 0.1634 0.2411 -0.3672
vn 0.2442 0.0674 -0.3943
vn 0.1964 0.0278 -0.4247
vn -0.0026 0.1285 -0.4507
vn -0.0373 -0.0670 -0.4624
vn -0.0573 0.1302 -0.4466
vn -0.0304 -0.0832 -0.4602
vn -0.0028 0.1046 -0.4569
vn -0.0440 -0.0457 -0.4644
vn -0.3462 0.1018 -0.2991
vn -0.4646 -0.0413 -0.0458
vn -0.4155 0.1614 0.1448
vn -0.3725 -0.1122 0.2614
vn -0.4515 0.1113 0.0583
vn -0.4495 -0.1206 0.0553
vn -0.4431 -0.0138 0.1521
vn -0.3683 0.1259 0.2612
vn -0.3306 0.1099 0.3135
vn -0.1779 0.2383 0.3623
vn -0.0699 0.0481 0.4609
vn 0.0189 0.2924 0.3658
vn 0.0716 0.0075 0.4631
vn 0.0819 0.2358 0.3967
vn 0.1773 0.1027 0.4215
vn 0.2532 -0.0540 0.3907
vn 0.3016 0.1152 0.3398
vn 0.3932 -0.0315 0.2531
vn 0.4632 0.0686 -0.0211
vn 0.4407 0.0904 -0.1315
vn 0.4568 0.0002 -0.1048
vn 0.1865 0.1864 -0.3875
vn 0.0851 0.2280 -0.4005
vn 0.0592 0.1590 -0.4369
vn 0.0511 0.0198 -0.4655
vn 0.0132 0.0407 -0.4667
vn -0.1671 0.0437 -0.4357
vn -0.1610 0.0394 -0.4384
vn -0.4127 -0.1028 -0.1968
vn -0.3018 -0.2037 -0.2951
vn -0.3931 -0.2195 0.1303
vn -0.4609 0.0168 0.0834
vn -0.4028 -0.2141 -0.1076
vn -0.4211 -0.1426 0.1484
vn -0.3870 -0.2163 -0.1519
vn -0.2410 -0.2525 0.3129
vn 0.1786 0.0354 0.4319
vn 0.0847 -0.2885 0.3595
vn 0.2098 -0.2474 0.3383
vn 0.0876 -0.3576 0.2901
vn 0.0823 -0.2893 0.3595
vn 0.4498 0.1095 -0.0729
vn 0.4465 0.0518 -0.1328
vn 0.4652 0.0425 0.0375
vn 0.3962 -0.1913 0.1616
vn 0.4637 -0.0476 0.0484
vn 0.3120 -0.3066 -0.1682
vn 0.2140 -0.4113 0.0684
vn 0.1478 -0.2967 -0.3313
vn 0.0780 -0.4232 -0.1856
vn 0.0301 -0.2142 -0.4158
vn -0.0813 -0.3885 -0.2492
vn -0.0921 -0.1651 -0.4289
vn -0.2238 -0.2985 -0.2838
vn -0.2092 -0.4123 -0.0771
vn -0.3513 -0.3062 0.0502
vn -0.3962 -0.1772 0.1770
vn -0.2935 -0.1224 0.3443
vn -0.4552 -0.1046 0.0392
vn -0.3501 -0.2972 0.0935
vn -0.3696 -0.2735 0.0906
vn -0.0137 -0.3457 0.3162
vn 0.0878 -0.2096 0.4099
vn 0.2716 -0.3199 0.2086
vn 0.1126 -0.4481 0.0787
vn 0.2473 -0.3316 0.2203
vn 0.3151 -0.3454 -0.0329
vn 0.2281 -0.1062 0.3954
vn 0.2753 -0.3157 0.2102
vn 0.2215 -0.2296 0.3433
vt 0.181819 0.000000
vt 0.909091 0.000000
vt 0.727273 0.000000
vt 0.545455 0.000000
vt 0.363637 0.000000
vt 0.272728 0.157461
vt 1.000000 0.157461
vt 0.090910 0.157461
vt 0.818182 0.157461
vt 0.636364 0.157461
vt 0.454546 0.157461
vt 0.181819 0.314921
vt 0.000000 0.314921
vt 0.909091 0.314921
vt 0.727273 0.314921
vt 0.545455 0.314921
vt 0.363637 0.314921
vt 0.454546 0.472382
vt 0.636364 0.472382
vt 0.818182 0.472382
vt 0.090910 0.472382
vt 0.272728 0.472382
vt 0.977273 0.118096
vt 0.113637 0.118096
vt 0.954545 0.078731
vt 0.136365 0.078731
vt 0.931818 0.039365
vt 0.159092 0.039365
vt 0.340910 0.039365
vt 0.204546 0.039365
vt 0.318182 0.078731
vt 0.227273 0.078731
vt 0.295455 0.118096
vt 0.250001 0.118096
vt 0.227274 0.157461
vt 0.181819 0.157461
vt 0.136364 0.157461
vt 0.409092 0.157461
vt 0.363637 0.157461
vt 0.318182 0.157461
vt 0.522728 0.039365
vt 0.386364 0.039365
vt 0.500000 0.078731
vt 0.409091 0.078731
vt 0.477273 0.118096
vt 0.431819 0.118096
vt 0.795455 0.118096
vt 0.840909 0.118096
vt 0.772727 0.078731
vt 0.863636 0.078731
vt 0.750000 0.039365
vt 0.886364 0.039365
vt 0.954545 0.157461
vt 0.909091 0.157461
vt 0.863636 0.157461
vt 0.613637 0.118096
vt 0.659091 0.118096
vt 0.590909 0.078731
vt 0.681818 0.078731
vt 0.568182 0.039365
vt 0.704546 0.039365
vt 0.772727 0.157461
vt 0.727273 0.157461
vt 0.681818 0.157461
vt 0.590909 0.157461
vt 0.545455 0.157461
vt 0.500000 0.157461
vt 0.340910 0.275556
vt 0.318182 0.236191
vt 0.295455 0.196826
vt 0.431819 0.196826
vt 0.409091 0.236191
vt 0.386364 0.275556
vt 0.159092 0.275556
vt 0.136364 0.236191
vt 0.113637 0.196826
vt 0.250001 0.196826
vt 0.227273 0.236191
vt 0.204546 0.275556
vt 0.886364 0.275556
vt 0.863636 0.236191
vt 0.840909 0.196826
vt 0.068182 0.196826
vt 0.977273 0.196826
vt 0.045455 0.236191
vt 0.954545 0.236191
vt 0.022727 0.275556
vt 0.931818 0.275556
vt 0.704546 0.275556
vt 0.681818 0.236191
vt 0.659091 0.196826
vt 0.795455 0.196826
vt 0.772727 0.236191
vt 0.750000 0.275556
vt 0.522728 0.275556
vt 0.500000 0.236191
vt 0.477273 0.196826
vt 0.613637 0.196826
vt 0.590909 0.236191
vt 0.568182 0.275556
vt 0.318182 0.314921
vt 0.272728 0.314921
vt 0.227273 0.314921
vt 0.136364 0.314921
vt 0.090909 0.314921
vt 0.045455 0.314921
vt 0.863636 0.314921
vt 0.818182 0.314921
vt 0.772727 0.314921
vt 0.681818 0.314921
vt 0.636364 0.314921
vt 0.590909 0.314921
vt 0.500000 0.314921
vt 0.454546 0.314921
vt 0.409091 0.314921
vt 0.113637 0.433017
vt 0.250001 0.433017
vt 0.136365 0.393651
vt 0.227273 0.393651
vt 0.159092 0.354286
vt 0.204546 0.354286
vt 0.386364 0.354286
vt 0.340910 0.354286
vt 0.409091 0.393651
vt 0.318182 0.393651
vt 0.431819 0.433017
vt 0.295455 0.433017
vt 0.840909 0.433017
vt 0.068182 0.433017
vt 0.863636 0.393651
vt 0.045455 0.393651
vt 0.886364 0.354286
vt 0.022727 0.354286
vt 0.659091 0.433017
vt 0.795455 0.433017
vt 0.681818 0.393651
vt 0.772727 0.393651
vt 0.704546 0.354286
vt 0.750000 0.354286
vt 0.477273 0.433017
vt 0.613637 0.433017
vt 0.500000 0.393651
vt 0.590909 0.393651
vt 0.522728 0.354286
vt 0.568182 0.354286
vt 0.454546 0.393651
vt 0.431819 0.354286
vt 0.477273 0.354286
vt 0.636364 0.393651
vt 0.613637 0.354286
vt 0.659091 0.354286
vt 0.818182 0.393651
vt 0.795455 0.354286
vt 0.840909 0.354286
vt 0.090910 0.393651
vt 0.068182 0.354286
vt 0.113637 0.354286
vt 0.272728 0.393651
vt 0.250001 0.354286
vt 0.295455 0.354286
vt 0.431819 0.275556
vt 0.454546 0.236191
vt 0.477273 0.275556
vt 0.613637 0.275556
vt 0.636364 0.236191
vt 0.659091 0.275556
vt 0.795455 0.275556
vt 0.818182 0.236191
vt 0.840909 0.275556
vt 0.068182 0.275556
vt 0.090910 0.236191
vt 0.113637 0.275556
vt 0.250001 0.275556
vt 0.272728 0.236191
vt 0.295455 0.275556
vt 0.545455 0.236191
vt 0.522728 0.196826
vt 0.568182 0.196826
vt 0.727273 0.236191
vt 0.704546 0.196826
vt 0.750000 0.196826
vt 0.909091 0.236191
vt 0.886364 0.196826
vt 0.931818 0.196826
vt 0.181819 0.236191
vt 0.159092 0.196826
vt 0.204546 0.196826
vt 0.363637 0.236191
vt 0.340910 0.196826
vt 0.386364 0.196826
vt 0.522728 0.118096
vt 0.545455 0.078731
vt 0.568182 0.118096
vt 0.704546 0.118096
vt 0.727273 0.078731
vt 0.750000 0.118096
vt 0.886364 0.118096
vt 0.909091 0.078731
vt 0.931818 0.118096
vt 0.386364 0.118096
vt 0.340910 0.118096
vt 0.363637 0.078730
vt 0.159092 0.118096
vt 0.181819 0.078731
vt 0.204546 0.118096
s 1
usemtl Material.001
f 1/1/1 16/30/2 15/28/3
f 2/6/4 18/33/5 24/40/6
f 1/2/1 15/27/3 30/52/7
f 1/3/1 30/51/7 36/61/8
f 1/4/1 36/60/8 25/41/9
f 2/6/4 24/40/6 45/70/10
f 3/8/11 21/37/12 51/76/13
f 4/9/14 33/55/15 57/82/16
f 5/10/17 39/64/18 63/91/19
f 6/11/20 42/67/21 69/97/22
f 2/6/4 45/70/10 52/77/23
f 3/8/11 51/76/13 58/83/24
f 4/9/14 57/82/16 64/92/25
f 5/10/17 63/91/19 70/98/26
f 6/11/20 69/97/22 46/71/27
f 7/12/28 75/103/29 90/121/30
f 8/13/31 78/106/32 96/133/33
f 9/15/34 81/109/35 99/139/36
f 10/16/37 84/112/38 102/145/39
f 11/17/40 87/115/41 91/122/42
f 93/126/43 100/140/44 12/18/45
f 92/124/46 103/146/47 93/126/43
f 91/122/42 104/147/48 92/124/46
f 93/126/43 103/146/47 100/140/44
f 103/146/47 101/142/49 100/140/44
f 92/124/46 104/147/48 103/146/47
f 104/147/48 105/148/50 103/146/47
f 103/146/47 105/148/50 101/142/49
f 105/148/50 102/144/39 101/142/49
f 91/122/42 87/115/41 104/147/48
f 87/115/41 86/114/51 104/147/48
f 104/147/48 86/114/51 105/148/50
f 86/114/51 85/113/52 105/148/50
f 105/148/50 85/113/52 102/144/39
f 85/113/52 10/16/37 102/144/39
f 100/141/44 97/134/53 12/19/45
f 101/143/49 106/149/54 100/141/44
f 102/145/39 107/150/55 101/143/49
f 100/141/44 106/149/54 97/134/53
f 106/149/54 98/136/56 97/134/53
f 101/143/49 107/150/55 106/149/54
f 107/150/55 108/151/57 106/149/54
f 106/149/54 108/151/57 98/136/56
f 108/151/57 99/138/36 98/136/56
f 102/145/39 84/112/38 107/150/55
f 84/112/38 83/111/58 107/150/55
f 107/150/55 83/111/58 108/151/57
f 83/111/58 82/110/59 108/151/57
f 108/151/57 82/110/59 99/138/36
f 82/110/59 9/15/34 99/138/36
f 97/135/53 94/128/60 12/20/45
f 98/137/56 109/152/61 97/135/53
f 99/139/36 110/153/62 98/137/56
f 97/135/53 109/152/61 94/128/60
f 109/152/61 95/130/63 94/128/60
f 98/137/56 110/153/62 109/152/61
f 110/153/62 111/154/64 109/152/61
f 109/152/61 111/154/64 95/130/63
f 111/154/64 96/132/33 95/130/63
f 99/139/36 81/109/35 110/153/62
f 81/109/35 80/108/65 110/153/62
f 110/153/62 80/108/65 111/154/64
f 80/108/65 79/107/66 111/154/64
f 111/154/64 79/107/66 96/132/33
f 79/107/66 8/14/31 96/132/33
f 94/129/60 88/116/67 12/21/45
f 95/131/63 112/155/68 94/129/60
f 96/133/33 113/156/69 95/131/63
f 94/129/60 112/155/68 88/116/67
f 112/155/68 89/118/70 88/116/67
f 95/131/63 113/156/69 112/155/68
f 113/156/69 114/157/71 112/155/68
f 112/155/68 114/157/71 89/118/70
f 114/157/71 90/120/30 89/118/70
f 96/133/33 78/106/32 113/156/69
f 78/106/32 77/105/72 113/156/69
f 113/156/69 77/105/72 114/157/71
f 77/105/72 76/104/73 114/157/71
f 114/157/71 76/104/73 90/120/30
f 76/104/73 7/12/28 90/120/30
f 88/117/67 93/127/43 12/22/45
f 89/119/70 115/158/74 88/117/67
f 90/121/30 116/159/75 89/119/70
f 88/117/67 115/158/74 93/127/43
f 115/158/74 92/125/46 93/127/43
f 89/119/70 116/159/75 115/158/74
f 116/159/75 117/160/76 115/158/74
f 115/158/74 117/160/76 92/125/46
f 117/160/76 91/123/42 92/125/46
f 90/121/30 75/103/29 116/159/75
f 75/103/29 74/102/77 116/159/75
f 116/159/75 74/102/77 117/160/76
f 74/102/77 73/101/78 117/160/76
f 117/160/76 73/101/78 91/123/42
f 73/101/78 11/17/40 91/123/42
f 48/73/79 87/115/41 11/17/40
f 47/72/80 118/161/81 48/73/79
f 46/71/27 119/162/82 47/72/80
f 48/73/79 118/161/81 87/115/41
f 118/161/81 86/114/51 87/115/41
f 47/72/80 119/162/82 118/161/81
f 119/162/82 120/163/83 118/161/81
f 118/161/81 120/163/83 86/114/51
f 120/163/83 85/113/52 86/114/51
f 46/71/27 69/97/22 119/162/82
f 69/97/22 68/96/84 119/162/82
f 119/162/82 68/96/84 120/163/83
f 68/96/84 67/95/85 120/163/83
f 120/163/83 67/95/85 85/113/52
f 67/95/85 10/16/37 85/113/52
f 72/100/86 84/112/38 10/16/37
f 71/99/87 121/164/88 72/100/86
f 70/98/26 122/165/89 71/99/87
f 72/100/86 121/164/88 84/112/38
f 121/164/88 83/111/58 84/112/38
f 71/99/87 122/165/89 121/164/88
f 122/165/89 123/166/90 121/164/88
f 121/164/88 123/166/90 83/111/58
f 123/166/90 82/110/59 83/111/58
f 70/98/26 63/91/19 122/165/89
f 63/91/19 62/90/91 122/165/89
f 122/165/89 62/90/91 123/166/90
f 62/90/91 61/89/92 123/166/90
f 123/166/90 61/89/92 82/110/59
f 61/89/92 9/15/34 82/110/59
f 66/94/93 81/109/35 9/15/34
f 65/93/94 124/167/95 66/94/93
f 64/92/25 125/168/96 65/93/94
f 66/94/93 124/167/95 81/109/35
f 124/167/95 80/108/65 81/109/35
f 65/93/94 125/168/96 124/167/95
f 125/168/96 126/169/97 124/167/95
f 124/167/95 126/169/97 80/108/65
f 126/169/97 79/107/66 80/108/65
f 64/92/25 57/82/16 125/168/96
f 57/82/16 56/81/98 125/168/96
f 125/168/96 56/81/98 126/169/97
f 56/81/98 55/80/99 126/169/97
f 126/169/97 55/80/99 79/107/66
f 55/80/99 8/14/31 79/107/66
f 60/87/100 78/106/32 8/13/31
f 59/85/101 127/170/102 60/87/100
f 58/83/24 128/171/103 59/85/101
f 60/87/100 127/170/102 78/106/32
f 127/170/102 77/105/72 78/106/32
f 59/85/101 128/171/103 127/170/102
f 128/171/103 129/172/104 127/170/102
f 127/170/102 129/172/104 77/105/72
f 129/172/104 76/104/73 77/105/72
f 58/83/24 51/76/13 128/171/103
f 51/76/13 50/75/105 128/171/103
f 128/171/103 50/75/105 129/172/104
f 50/75/105 49/74/106 129/172/104
f 129/172/104 49/74/106 76/104/73
f 49/74/106 7/12/28 76/104/73
f 54/79/107 75/103/29 7/12/28
f 53/78/108 130/173/109 54/79/107
f 52/77/23 131/174/110 53/78/108
f 54/79/107 130/173/109 75/103/29
f 130/173/109 74/102/77 75/103/29
f 53/78/108 131/174/110 130/173/109
f 131/174/110 132/175/111 130/173/109
f 130/173/109 132/175/111 74/102/77
f 132/175/111 73/101/78 74/102/77
f 52/77/23 45/70/10 131/174/110
f 45/70/10 44/69/112 131/174/110
f 131/174/110 44/69/112 132/175/111
f 44/69/112 43/68/113 132/175/111
f 132/175/111 43/68/113 73/101/78
f 43/68/113 11/17/40 73/101/78
f 67/95/85 72/100/86 10/16/37
f 68/96/84 133/176/114 67/95/85
f 69/97/22 134/177/115 68/96/84
f 67/95/85 133/176/114 72/100/86
f 133/176/114 71/99/87 72/100/86
f 68/96/84 134/177/115 133/176/114
f 134/177/115 135/178/116 133/176/114
f 133/176/114 135/178/116 71/99/87
f 135/178/116 70/98/26 71/99/87
f 69/97/22 42/67/21 134/177/115
f 42/67/21 41/66/117 134/177/115
f 134/177/115 41/66/117 135/178/116
f 41/66/117 40/65/118 135/178/116
f 135/178/116 40/65/118 70/98/26
f 40/65/118 5/10/17 70/98/26
f 61/89/92 66/94/93 9/15/34
f 62/90/91 136/179/119 61/89/92
f 63/91/19 137/180/120 62/90/91
f 61/89/92 136/179/119 66/94/93
f 136/179/119 65/93/94 66/94/93
f 62/90/91 137/180/120 136/179/119
f 137/180/120 138/181/121 136/179/119
f 136/179/119 138/181/121 65/93/94
f 138/181/121 64/92/25 65/93/94
f 63/91/19 39/64/18 137/180/120
f 39/64/18 38/63/122 137/180/120
f 137/180/120 38/63/122 138/181/121
f 38/63/122 37/62/123 138/181/121
f 138/181/121 37/62/123 64/92/25
f 37/62/123 4/9/14 64/92/25
f 55/80/99 60/88/100 8/14/31
f 56/81/98 139/182/124 55/80/99
f 57/82/16 140/183/125 56/81/98
f 55/80/99 139/182/124 60/88/100
f 139/182/124 59/86/101 60/88/100
f 56/81/98 140/183/125 139/182/124
f 140/183/125 141/184/126 139/182/124
f 139/182/124 141/184/126 59/86/101
f 141/184/126 58/84/24 59/86/101
f 57/82/16 33/55/15 140/183/125
f 33/55/15 32/54/127 140/183/125
f 140/183/125 32/54/127 141/184/126
f 32/54/127 31/53/128 141/184/126
f 141/184/126 31/53/128 58/84/24
f 31/53/128 3/7/11 58/84/24
f 49/74/106 54/79/107 7/12/28
f 50/75/105 142/185/129 49/74/106
f 51/76/13 143/186/130 50/75/105
f 49/74/106 142/185/129 54/79/107
f 142/185/129 53/78/108 54/79/107
f 50/75/105 143/186/130 142/185/129
f 143/186/130 144/187/131 142/185/129
f 142/185/129 144/187/131 53/78/108
f 144/187/131 52/77/23 53/78/108
f 51/76/13 21/37/12 143/186/130
f 21/37/12 20/36/132 143/186/130
f 143/186/130 20/36/132 144/187/131
f 20/36/132 19/35/133 144/187/131
f 144/187/131 19/35/133 52/77/23
f 19/35/133 2/6/4 52/77/23
f 43/68/113 48/73/79 11/17/40
f 44/69/112 145/188/134 43/68/113
f 45/70/10 146/189/135 44/69/112
f 43/68/113 145/188/134 48/73/79
f 145/188/134 47/72/80 48/73/79
f 44/69/112 146/189/135 145/188/134
f 146/189/135 147/190/136 145/188/134
f 145/188/134 147/190/136 47/72/80
f 147/190/136 46/71/27 47/72/80
f 45/70/10 24/40/6 146/189/135
f 24/40/6 23/39/137 146/189/135
f 146/189/135 23/39/137 147/190/136
f 23/39/137 22/38/138 147/190/136
f 147/190/136 22/38/138 46/71/27
f 22/38/138 6/11/20 46/71/27
f 27/45/139 42/67/21 6/11/20
f 26/43/140 148/191/141 27/45/139
f 25/41/9 149/192/142 26/43/140
f 27/45/139 148/191/141 42/67/21
f 148/191/141 41/66/117 42/67/21
f 26/43/140 149/192/142 148/191/141
f 149/192/142 150/193/143 148/191/141
f 148/191/141 150/193/143 41/66/117
f 150/193/143 40/65/118 41/66/117
f 25/41/9 36/60/8 149/192/142
f 36/60/8 35/58/144 149/192/142
f 149/192/142 35/58/144 150/193/143
f 35/58/144 34/56/145 150/193/143
f 150/193/143 34/56/145 40/65/118
f 34/56/145 5/10/17 40/65/118
f 34/57/145 39/64/18 5/10/17
f 35/59/144 151/194/146 34/57/145
f 36/61/8 152/195/147 35/59/144
f 34/57/145 151/194/146 39/64/18
f 151/194/146 38/63/122 39/64/18
f 35/59/144 152/195/147 151/194/146
f 152/195/147 153/196/148 151/194/146
f 151/194/146 153/196/148 38/63/122
f 153/196/148 37/62/123 38/63/122
f 36/61/8 30/51/7 152/195/147
f 30/51/7 29/49/149 152/195/147
f 152/195/147 29/49/149 153/196/148
f 29/49/149 28/47/150 153/196/148
f 153/196/148 28/47/150 37/62/123
f 28/47/150 4/9/14 37/62/123
f 28/48/150 33/55/15 4/9/14
f 29/50/149 154/197/151 28/48/150
f 30/52/7 155/198/152 29/50/149
f 28/48/150 154/197/151 33/55/15
f 154/197/151 32/54/127 33/55/15
f 29/50/149 155/198/152 154/197/151
f 155/198/152 156/199/153 154/197/151
f 154/197/151 156/199/153 32/54/127
f 156/199/153 31/53/128 32/54/127
f 30/52/7 15/27/3 155/198/152
f 15/27/3 14/25/154 155/198/152
f 155/198/152 14/25/154 156/199/153
f 14/25/154 13/23/155 156/199/153
f 156/199/153 13/23/155 31/53/128
f 13/23/155 3/7/11 31/53/128
f 22/38/138 27/46/139 6/11/20
f 23/39/137 157/200/156 22/38/138
f 24/40/6 158/201/157 23/39/137
f 22/38/138 157/200/156 27/46/139
f 157/200/156 26/44/140 27/46/139
f 23/39/137 158/201/157 157/200/156
f 158/201/157 159/202/158 157/200/156
f 157/200/156 159/202/158 26/44/140
f 159/202/158 25/42/9 26/44/140
f 24/40/6 18/33/5 158/201/157
f 18/33/5 17/31/159 158/201/157
f 158/201/157 17/31/159 159/202/158
f 17/31/159 16/29/2 159/202/158
f 159/202/158 16/29/2 25/42/9
f 16/29/2 1/5/1 25/42/9
f 13/24/155 21/37/12 3/8/11
f 14/26/154 160/203/160 13/24/155
f 15/28/3 161/204/161 14/26/154
f 13/24/155 160/203/160 21/37/12
f 160/203/160 20/36/132 21/37/12
f 14/26/154 161/204/161 160/203/160
f 161/204/161 162/205/162 160/203/160
f 160/203/160 162/205/162 20/36/132
f 162/205/162 19/35/133 20/36/132
f 15/28/3 16/30/2 161/204/161
f 16/30/2 17/32/159 161/204/161
f 161/204/161 17/32/159 162/205/162
f 17/32/159 18/34/5 162/205/162
f 162/205/162 18/34/5 19/35/133
f 18/34/5 2/6/4 19/35/133
